PathFileType	4	(X/Y/Z)	C:/Users/opensim2020/Desktop/walking_exp_matlab/subject02_walking05_straight_04.trc																																																																																																																												
DataRate	CameraRate	NumFrames	NumMarkers	Units	OrigDataRate	OrigDataStartFrame	OrigNumFrames																																																																																																																								
100	100	6	42	mm	100	2791	220																																																																																																																								
Frame#	Time	LFHD			RFHD			LBHD			RBHD			C7			T10			CLAV			STRN			RBAK			LSHO			LUPA			LELB			LFRM			LWRA			LWRB			LFIN			RSHO			RUPA			RELB			RFRM			RWRA			RWRB			RFIN			LASI			RASI			LPSI			RPSI			LTHI			LKNE			LTIB			LANK			LHEE			LTOE			RTHI			RKNE			RTIB			RANK			RHEE			RTOE			*39			*40			*41		
		X1	Y1	Z1	X2	Y2	Z2	X3	Y3	Z3	X4	Y4	Z4	X5	Y5	Z5	X6	Y6	Z6	X7	Y7	Z7	X8	Y8	Z8	X9	Y9	Z9	X10	Y10	Z10	X11	Y11	Z11	X12	Y12	Z12	X13	Y13	Z13	X14	Y14	Z14	X15	Y15	Z15	X16	Y16	Z16	X17	Y17	Z17	X18	Y18	Z18	X19	Y19	Z19	X20	Y20	Z20	X21	Y21	Z21	X22	Y22	Z22	X23	Y23	Z23	X24	Y24	Z24	X25	Y25	Z25	X26	Y26	Z26	X27	Y27	Z27	X28	Y28	Z28	X29	Y29	Z29	X30	Y30	Z30	X31	Y31	Z31	X32	Y32	Z32	X33	Y33	Z33	X34	Y34	Z34	X35	Y35	Z35	X36	Y36	Z36	X37	Y37	Z37	X38	Y38	Z38	X39	Y39	Z39	X40	Y40	Z40	X41	Y41	Z41	X42	Y42	Z42
																																																																																																																															
56	0.55	-525.42426	1724.23828	-1479.24243	-542.1366	1700.08374	-1338.32373	-656.5473	1654.11658	-1504.50757	-685.02167	1629.43542	-1366.00452	-723.18274	1508.89441	-1439.21875	-772.18097	1231.27039	-1431.61462	-582.28003	1441.18042	-1447.17346	-528.34973	1271.84656	-1441.08057	-780.43317	1330.46179	-1379.81738	-647.82391	1487.03613	-1617.31543	-637.3443	1291.76404	-1709.16211	-610.23346	1155.33179	-1738.46045	-547.63647	1037.45654	-1756.31812	-442.51587	949.63281	-1730.83484	-486.12436	931.3222	-1762.20276	-439.86285	885.63373	-1771.22656	-655.54669	1470.20325	-1251.49463	-708.99664	1284.1731	-1174.81897	-714.16254	1138.91553	-1159.57556	-708.08856	1020.63275	-1135.06836	-681.05853	886.63824	-1144.99756	-730.745	893.09729	-1118.51172	-707.37952	823.45587	-1112.21875	-546.63354	963.87189	-1568.46729	-519.69055	972.48615	-1317.6991	-745.90894	1014.76672	-1472.6886	-740.70465	1019.68097	-1355.79236	-675.64294	663.07477	-1622.09607	-736.95709	480.77634	-1605.2262	-890.00616	366.6647	-1592.50635	-1018.93256	185.07024	-1564.71887	-1048.06335	187.85405	-1505.57776	-955.03644	40.18289	-1579.90955	-527.59686	670.2099	-1244.74866	-482.66852	468.9339	-1296.3136	-501.80511	281.25162	-1294.70129	-505.49832	90.68481	-1335.25793	-539.4989	39.45988	-1392.27124	-352.78809	39.87358	-1324.88477	-634.50574	1789.79663	-1397.59106	NaN	NaN	NaN	NaN	NaN	NaN
57	0.56	-515.78577	1725.59656	-1477.93616	-532.34125	1701.36768	-1337.0061	-646.84381	1655.35645	-1503.10388	-675.23712	1630.56531	-1364.58105	-713.18555	1510.01611	-1437.71143	-761.76593	1232.2793	-1429.70313	-572.17834	1442.61267	-1446.01978	-517.89014	1273.34619	-1439.66272	-769.9176	1331.38293	-1378.16577	-638.31854	1488.0387	-1615.79199	-629.90179	1292.1532	-1706.95764	-605.16364	1154.90332	-1734.79651	-545.57758	1035.56128	-1752.65393	-442.61914	944.95129	-1727.30933	-486.61087	927.82166	-1758.52222	-441.58325	880.45624	-1766.91943	-645.53229	1471.83447	-1250.40332	-696.94458	1285.43994	-1173.13257	-701.10724	1140.03784	-1157.81873	-694.82471	1022.03851	-1132.62781	-666.79974	887.85864	-1142.49622	-716.45673	894.34277	-1116.07629	-693.16003	824.81281	-1109.80334	-535.82635	964.47137	-1565.18896	-509.41403	973.68213	-1315.04077	-735.82312	1015.7182	-1471.43506	-730.38367	1020.69073	-1354.49805	-659.12408	661.02856	-1620.88599	-716.11652	479.04645	-1605.71643	-870.14777	367.73602	-1593.03479	-1003.36957	191.47835	-1563.93262	-1031.82336	195.80647	-1503.85376	-946.5567	44.28551	-1579.41724	-518.46411	671.28711	-1243.84766	-477.6297	468.90265	-1296.11304	-498.8895	281.13376	-1294.38147	-504.88315	90.64262	-1335.39795	-539.43805	39.53387	-1392.33875	-352.27982	39.41426	-1325.03027	-624.99615	1791.13782	-1396.29248	NaN	NaN	NaN	NaN	NaN	NaN
58	0.57	-506.41437	1727.00391	-1476.90918	-522.55066	1702.57129	-1335.63574	-637.12262	1656.47351	-1501.80066	-665.36523	1631.64148	-1363.3291	-703.16443	1511.14087	-1436.14832	-751.60272	1233.3916	-1427.97351	-562.22906	1443.79626	-1444.8374	-507.61792	1274.58093	-1438.19397	-759.59949	1332.48254	-1376.41174	-628.9776	1488.99963	-1614.55811	-622.48639	1292.59412	-1704.85669	-600.33563	1154.8363	-1731.6145	-544.13434	1034.08704	-1749.59583	-442.98148	940.24432	-1723.68176	-487.60724	924.77185	-1755.24463	-444.13632	875.67871	-1763.08289	-635.16718	1473.33972	-1249.22766	-684.64722	1286.521	-1171.19287	-688.07532	1141.16113	-1155.97827	-680.95416	1023.41705	-1130.56055	-652.14026	889.33557	-1140.40002	-701.66937	895.55634	-1113.55786	-678.18475	826.21521	-1107.21948	-525.55054	965.07587	-1562.46692	-499.51743	974.79364	-1313.14661	-725.97662	1016.68805	-1470.13257	-720.21515	1021.94342	-1353.06836	-642.34052	659.32062	-1620.09863	-694.9364	477.38708	-1606.21277	-849.75549	368.66711	-1594.18665	-987.63397	197.82657	-1561.62305	-1015.04675	203.08388	-1501.47205	-934.46344	49.51158	-1580.97375	-510.05869	672.27234	-1243.29346	-472.43784	468.99005	-1295.5686	-496.01556	281.16876	-1293.625	-504.38736	90.64299	-1335.38977	-539.40289	39.56271	-1392.31958	-351.98804	39.14623	-1325.13464	-615.48889	1792.26001	-1394.9624	NaN	NaN	NaN	NaN	NaN	NaN
59	0.58	-496.92987	1728.68152	-1475.83813	-512.90295	1704.07373	-1334.54297	-627.47906	1657.625	-1500.57239	-655.53259	1632.73169	-1362.08557	-693.24585	1512.34875	-1434.62354	-741.62616	1234.67249	-1426.31482	-552.35889	1445.1637	-1443.89111	-497.66232	1276.03821	-1437.24133	-749.26477	1333.79346	-1374.45386	-619.68292	1490.01392	-1613.30872	-615.05829	1292.77954	-1702.6333	-595.53375	1154.69458	-1728.35181	-542.40051	1032.40637	-1745.98071	-443.79889	936.01611	-1720.45691	-488.8056	921.8302	-1752.00476	-446.91498	870.95502	-1759.0072	-624.41577	1474.73071	-1247.87134	-672.71204	1287.53381	-1169.55774	-674.89093	1142.34338	-1153.91943	-666.80536	1024.69788	-1128.45557	-637.14313	890.81409	-1138.14087	-686.80151	896.87012	-1111.30945	-662.68085	827.60767	-1104.63306	-515.64917	965.7016	-1560.35144	-489.73932	975.51208	-1311.47253	-716.35962	1017.71234	-1468.71741	-710.33948	1023.30737	-1351.64209	-625.36438	658.35846	-1619.66284	-673.46033	476.02954	-1606.65796	-828.95673	370.43103	-1595.15125	-970.69891	203.91824	-1558.80603	-997.11267	208.799	-1498.45471	-919.54053	55.39893	-1582.81445	-502.47815	672.76215	-1242.90405	-467.51361	469.02786	-1295.2262	-493.33768	281.10995	-1292.73376	-503.92685	90.71674	-1335.4032	-539.43512	39.58763	-1392.24524	-351.8237	38.98813	-1325.16125	-606.15594	1793.37524	-1393.77502	NaN	NaN	NaN	NaN	NaN	NaN
60	0.59	-487.42706	1730.33325	-1474.88855	-503.33063	1705.58032	-1333.54382	-617.82056	1658.7749	-1499.51172	-645.75452	1633.77844	-1361.08533	-683.37213	1513.64136	-1433.28931	-731.84839	1235.97681	-1424.6217	-542.56854	1446.40442	-1443.03271	-487.70499	1277.11145	-1436.06165	-739.25848	1335.19458	-1372.62744	-610.49866	1490.97961	-1612.30664	-608.12073	1293.34814	-1701.04272	-590.62402	1154.37842	-1724.81372	-541.07953	1031.09277	-1742.73718	-444.82452	931.72809	-1717.16003	-490.19327	918.93188	-1748.7262	-450.03275	866.37195	-1755.18665	-613.5744	1476.32251	-1246.89783	-661.19354	1288.67114	-1168.28247	-661.61346	1143.50403	-1151.99646	-652.61157	1026.05505	-1126.41443	-621.72607	892.28333	-1135.67175	-671.31006	897.9483	-1108.92944	-646.57025	829.13684	-1102.14136	-506.15552	966.50134	-1558.9707	-480.20432	976.02991	-1310.16492	-706.88904	1018.771	-1467.25427	-700.69073	1024.76404	-1350.1825	-608.4621	658.34454	-1619.5144	-651.9682	475.34232	-1606.84998	-808.19623	372.73584	-1594.60388	-952.40479	209.35695	-1555.99011	-978.13959	212.86598	-1494.81616	-902.46301	61.63019	-1584.30688	-495.03754	673.31702	-1242.16528	-463.0994	468.74857	-1294.43665	-490.7829	281.19235	-1291.75781	-503.72302	90.94592	-1335.23389	-539.49384	39.60333	-1392.20313	-351.68964	38.84254	-1325.18384	-597.02966	1794.66992	-1392.82141	NaN	NaN	NaN	NaN	NaN	NaN
61	0.6	-478.11075	1731.9425	-1473.95972	-493.8161	1707.21277	-1332.84192	-608.18298	1660.00146	-1498.57263	-635.91443	1634.8418	-1360.09912	-673.55133	1515.01172	-1431.96777	-722.19598	1237.47034	-1423.01294	-532.89813	1447.65686	-1442.31067	-478.18893	1278.36682	-1435.50916	-729.38141	1336.90503	-1370.77063	-601.42578	1491.95068	-1611.4386	-600.98145	1293.65491	-1699.07837	-585.75275	1154.13354	-1721.28894	-539.5639	1029.67065	-1739.36279	-446.00394	927.72052	-1714.07275	-491.82727	916.21252	-1745.52173	-453.46661	862.02643	-1751.37488	-602.50299	1477.78174	-1245.79553	-648.15503	1289.81677	-1166.01794	-648.2439	1144.60901	-1150.1366	-638.19128	1027.46631	-1124.38135	-605.96478	894.00903	-1133.65173	-655.62091	899.14008	-1106.73987	-630.10925	830.71802	-1099.54761	-497.01822	967.50208	-1558.25452	-470.70099	976.42999	-1309.17822	-697.55621	1019.88025	-1465.62573	-691.26654	1026.2406	-1348.72449	-591.83032	658.97614	-1619.64209	-630.51801	475.45596	-1606.78369	-787.54535	375.79288	-1592.91882	-933.13269	213.77721	-1553.17676	-958.58954	215.95604	-1491.53564	-883.10193	66.58079	-1585.50305	-488.3811	674.03046	-1241.93127	-459.06015	468.64456	-1293.49377	-488.30695	281.21286	-1290.94922	-503.40967	91.0125	-1334.83093	-539.63519	39.61315	-1392.12354	-351.65796	39.13912	-1324.8927	-587.7088	1795.81812	-1391.70251	-2845.73193	1033.93091	3356.89331	NaN	NaN	NaN
